<!DOCTYPE svg PUBLIC "-//W3C//DTD SVG 20010904//EN" "http://www.w3.org/TR/2001/REC-SVG-20010904/DTD/svg10.dtd">
<svg version="1.0" xmlns="http://www.w3.org/2000/svg" width="200px" height="195px" viewBox="0 0 2000 1950" preserveAspectRatio="xMidYMid meet">
<g id="layer101" fill="#001f6f" stroke="none">
 <path d="M0 975 l0 -975 1000 0 1000 0 0 975 0 975 -1000 0 -1000 0 0 -975z"/>
 </g>
<g id="layer102" fill="#002c77" stroke="none">
 <path d="M0 975 l0 -975 1000 0 1000 0 0 975 0 975 -1000 0 -1000 0 0 -975z m1115 455 c4 -6 -5 -10 -20 -10 -15 0 -24 4 -20 10 3 6 12 10 20 10 8 0 17 -4 20 -10z m150 0 c4 -6 -5 -10 -20 -10 -15 0 -24 4 -20 10 3 6 12 10 20 10 8 0 17 -4 20 -10z m-220 -10 c3 -5 -1 -10 -10 -10 -9 0 -13 5 -10 10 3 6 8 10 10 10 2 0 7 -4 10 -10z m272 -7 c-4 -3 -10 -3 -14 0 -3 4 0 7 7 7 7 0 10 -3 7 -7z m-310 -10 c-4 -3 -10 -3 -14 0 -3 4 0 7 7 7 7 0 10 -3 7 -7z m360 0 c-4 -3 -10 -3 -14 0 -3 4 0 7 7 7 7 0 10 -3 7 -7z m-752 -23 c3 -5 -3 -10 -15 -10 -12 0 -18 5 -15 10 3 6 10 10 15 10 5 0 12 -4 15 -10z m170 0 c4 -6 -5 -10 -20 -10 -15 0 -24 4 -20 10 3 6 12 10 20 10 8 0 17 -4 20 -10z m70 -10 c3 -5 -1 -10 -10 -10 -9 0 -13 5 -10 10 3 6 8 10 10 10 2 0 7 -4 10 -10z m641 -16 c18 -14 18 -14 -6 -3 -31 14 -36 19 -24 19 6 0 19 -7 30 -16z m-599 -1 c-4 -3 -10 -3 -14 0 -3 4 0 7 7 7 7 0 10 -3 7 -7z m659 -45 l29 -33 -32 29 c-31 28 -38 36 -30 36 2 0 16 -15 33 -32z m-1096 18 c0 -3 -5 -8 -12 -12 -7 -4 -8 -3 -4 4 7 12 16 16 16 8z m-40 -40 c0 -2 -8 -10 -17 -17 -16 -13 -17 -12 -4 4 13 16 21 21 21 13z m-43 -83 c-4 -3 -7 0 -7 7 0 7 3 10 7 7 3 -4 3 -10 0 -14z m879 -111 c-6 -10 -153 -8 -163 1 -3 4 33 7 81 7 48 0 85 -4 82 -8z m-189 -9 c-4 -3 -10 -3 -14 0 -3 4 0 7 7 7 7 0 10 -3 7 -7z m243 3 c0 -11 -19 -15 -25 -6 -3 5 1 10 9 10 9 0 16 -2 16 -4z m-283 -13 c-4 -3 -10 -3 -14 0 -3 4 0 7 7 7 7 0 10 -3 7 -7z m323 3 c0 -11 -19 -15 -25 -6 -3 5 1 10 9 10 9 0 16 -2 16 -4z m-353 -13 c-4 -3 -10 -3 -14 0 -3 4 0 7 7 7 7 0 10 -3 7 -7z m380 0 c-4 -3 -10 -3 -14 0 -3 4 0 7 7 7 7 0 10 -3 7 -7z m30 -10 c-4 -3 -10 -3 -14 0 -3 4 0 7 7 7 7 0 10 -3 7 -7z m-682 -13 c-3 -5 -24 -10 -45 -10 -21 0 -42 5 -45 10 -4 6 13 10 45 10 32 0 49 -4 45 -10z m-128 -11 c-14 -8 -22 -8 -30 0 -8 8 -3 11 19 11 25 -1 27 -2 11 -11z m215 -1 c-8 -8 -17 -8 -34 0 -22 10 -21 11 12 11 26 1 31 -2 22 -11z m-262 -2 c0 -11 -19 -15 -25 -6 -3 5 1 10 9 10 9 0 16 -2 16 -4z m320 0 c0 -11 -19 -15 -25 -6 -3 5 1 10 9 10 9 0 16 -2 16 -4z m40 0 c0 -3 -5 -8 -12 -12 -7 -4 -8 -3 -4 4 7 12 16 16 16 8z m-401 -10 c-10 -9 -69 -36 -69 -32 0 7 52 35 64 36 5 0 7 -2 5 -4z m1011 -22 c0 -2 -9 0 -20 6 -11 6 -20 13 -20 16 0 2 9 0 20 -6 11 -6 20 -13 20 -16z m31 -21 c13 -16 12 -17 -3 -4 -17 13 -22 21 -14 21 2 0 10 -8 17 -17z m-1142 -20 c-13 -16 -25 -30 -26 -32 -2 -2 -6 -2 -9 2 -4 3 7 17 22 31 38 33 43 33 13 -1z m1191 -38 c0 -5 -5 -3 -10 5 -5 8 -10 20 -10 25 0 6 5 3 10 -5 5 -8 10 -19 10 -25z"/>
 </g>
<g id="layer103" fill="#6cbee0" stroke="none">
 <path d="M1 975 l0 -975 999 0 999 0 0 975 0 974 -999 0 -999 0 0 -974z m1315 450 c100 -19 198 -65 246 -116 l38 -40 0 -180 0 -181 -31 31 c-66 67 -190 121 -322 141 -99 15 -197 1 -287 -41 l-65 -30 -87 12 c-104 14 -234 7 -300 -16 -27 -9 -70 -37 -98 -62 l-50 -45 0 156 c0 172 8 202 67 258 71 67 215 93 382 69 78 -12 85 -11 129 10 101 49 236 61 378 34z"/>
 </g>
<g id="layer104" fill="#72c7e6" stroke="none">
 <path d="M1 975 l0 -975 1000 0 999 0 0 413 c0 297 -3 416 -11 424 -9 9 -9 19 0 41 8 20 11 61 7 123 -2 52 -5 101 -4 109 0 8 2 201 4 428 l4 412 -422 -4 c-233 -2 -430 -4 -438 -4 -8 0 -62 2 -119 4 -69 4 -113 1 -133 -7 -22 -9 -32 -9 -41 0 -8 8 -128 11 -428 11 l-418 0 0 -975z m824 955 c3 -6 -4 -10 -17 -10 -18 0 -20 2 -8 10 19 12 18 12 25 0z m380 0 c3 -5 -1 -10 -10 -10 -9 0 -13 5 -10 10 3 6 8 10 10 10 2 0 7 -4 10 -10z m-428 -17 c-4 -3 -10 -3 -14 0 -3 4 0 7 7 7 7 0 10 -3 7 -7z m470 0 c-4 -3 -10 -3 -14 0 -3 4 0 7 7 7 7 0 10 -3 7 -7z m40 -10 c-4 -3 -10 -3 -14 0 -3 4 0 7 7 7 7 0 10 -3 7 -7z m60 -20 c-4 -3 -10 -3 -14 0 -3 4 0 7 7 7 7 0 10 -3 7 -7z m30 -10 c-4 -3 -10 -3 -14 0 -3 4 0 7 7 7 7 0 10 -3 7 -7z m-767 -13 c-8 -5 -19 -10 -25 -10 -5 0 -3 5 5 10 8 5 20 10 25 10 6 0 3 -5 -5 -10z m876 -36 c18 -14 18 -14 -6 -3 -31 14 -36 19 -24 19 6 0 19 -7 30 -16z m-976 -8 c0 -3 -5 -8 -12 -12 -7 -4 -8 -3 -4 4 7 12 16 16 16 8z m1035 -26 c3 -5 4 -10 1 -10 -3 0 -8 5 -11 10 -3 6 -4 10 -1 10 3 0 8 -4 11 -10z m-1085 -4 c0 -3 -5 -8 -12 -12 -7 -4 -8 -3 -4 4 7 12 16 16 16 8z m1115 -16 c3 -5 4 -10 1 -10 -3 0 -8 5 -11 10 -3 6 -4 10 -1 10 3 0 8 -4 11 -10z m-1145 -4 c0 -2 -8 -10 -17 -17 -16 -13 -17 -12 -4 4 13 16 21 21 21 13z m1175 -16 c3 -5 4 -10 1 -10 -3 0 -8 5 -11 10 -3 6 -4 10 -1 10 3 0 8 -4 11 -10z m-1215 -13 c0 -2 -10 -12 -22 -23 l-23 -19 19 23 c18 21 26 27 26 19z m1265 -27 c10 -11 16 -20 13 -20 -3 0 -13 9 -23 20 -10 11 -16 20 -13 20 3 0 13 -9 23 -20z m-1325 -23 c0 -2 -17 -19 -37 -38 l-38 -34 34 38 c33 34 41 42 41 34z m1385 -27 c3 -5 4 -10 1 -10 -3 0 -8 5 -11 10 -3 6 -4 10 -1 10 3 0 8 -4 11 -10z m60 -70 c10 -11 16 -20 13 -20 -3 0 -13 9 -23 20 -10 11 -16 20 -13 20 3 0 13 -9 23 -20z m-1535 -4 c0 -2 -8 -10 -17 -17 -16 -13 -17 -12 -4 4 13 16 21 21 21 13z m1571 -43 c13 -16 12 -17 -3 -4 -10 7 -18 15 -18 17 0 8 8 3 21 -13z m-1611 -7 c0 -3 -5 -8 -12 -12 -7 -4 -8 -3 -4 4 7 12 16 16 16 8z m1635 -26 c3 -5 4 -10 1 -10 -3 0 -8 5 -11 10 -3 6 -4 10 -1 10 3 0 8 -4 11 -10z m-1655 -4 c0 -3 -5 -8 -12 -12 -7 -4 -8 -3 -4 4 7 12 16 16 16 8z m1675 -26 c3 -5 4 -10 1 -10 -3 0 -8 5 -11 10 -3 6 -4 10 -1 10 3 0 8 -4 11 -10z m-510 -54 c22 -4 53 -13 69 -21 16 -8 35 -15 42 -15 7 0 26 -11 42 -25 17 -14 34 -25 39 -25 11 0 44 -37 58 -65 6 -12 9 -91 7 -193 l-3 -173 -30 31 c-66 66 -191 120 -322 140 -99 15 -197 1 -287 -41 l-65 -30 -87 12 c-105 14 -234 7 -302 -17 -30 -10 -69 -36 -99 -65 -28 -27 -52 -49 -54 -49 -8 0 -2 312 7 336 12 31 74 103 105 121 63 38 99 45 220 45 74 -1 102 -3 179 -15 20 -3 44 4 73 20 24 13 58 26 74 28 17 2 34 6 37 9 7 7 245 1 297 -8z m543 -11 c-3 -3 -9 2 -12 12 -6 14 -5 15 5 6 7 -7 10 -15 7 -18z m59 -142 c-4 -3 -7 0 -7 7 0 7 3 10 7 7 3 -4 3 -10 0 -14z m-1890 -20 c-4 -3 -7 0 -7 7 0 7 3 10 7 7 3 -4 3 -10 0 -14z m-10 -40 c-4 -3 -7 0 -7 7 0 7 3 10 7 7 3 -4 3 -10 0 -14z m1920 -10 c-4 -3 -7 0 -7 7 0 7 3 10 7 7 3 -4 3 -10 0 -14z m-1927 -29 c0 -8 -5 -12 -10 -9 -6 4 -8 11 -5 16 9 14 15 11 15 -7z m1945 -3 c3 -5 1 -12 -5 -16 -5 -3 -10 1 -10 9 0 18 6 21 15 7z m-1958 -63 c-3 -7 -5 -2 -5 12 0 14 2 19 5 13 2 -7 2 -19 0 -25z m1593 -245 c0 -20 -3 -24 -11 -16 -7 7 -9 19 -6 27 10 24 17 19 17 -11z m-1273 0 c-4 -3 -7 0 -7 7 0 7 3 10 7 7 3 -4 3 -10 0 -14z m-320 -35 c-3 -7 -5 -2 -5 12 0 14 2 19 5 13 2 -7 2 -19 0 -25z m1956 -33 c-7 -21 -13 -19 -13 6 0 11 4 18 10 14 5 -3 7 -12 3 -20z m-1609 -1 c3 -8 2 -12 -4 -9 -6 3 -10 10 -10 16 0 14 7 11 14 -7z m-337 -11 c-4 -3 -7 0 -7 7 0 7 3 10 7 7 3 -4 3 -10 0 -14z m1553 -6 c0 -2 -10 -12 -22 -23 l-23 -19 19 23 c18 21 26 27 26 19z m377 -24 c-4 -3 -7 0 -7 7 0 7 3 10 7 7 3 -4 3 -10 0 -14z m-1552 -13 c10 -11 16 -20 13 -20 -3 0 -13 9 -23 20 -10 11 -16 20 -13 20 3 0 13 -9 23 -20z m-368 -7 c-4 -3 -7 0 -7 7 0 7 3 10 7 7 3 -4 3 -10 0 -14z m10 -30 c-4 -3 -7 0 -7 7 0 7 3 10 7 7 3 -4 3 -10 0 -14z m398 7 c3 -5 4 -10 1 -10 -3 0 -8 5 -11 10 -3 6 -4 10 -1 10 3 0 8 -4 11 -10z m1035 -4 c0 -3 -5 -8 -12 -12 -7 -4 -8 -3 -4 4 7 12 16 16 16 8z m-1423 -33 c-4 -3 -7 0 -7 7 0 7 3 10 7 7 3 -4 3 -10 0 -14z m480 -10 c-4 -3 -10 -3 -14 0 -3 4 0 7 7 7 7 0 10 -3 7 -7z m-470 -20 c-4 -3 -7 0 -7 7 0 7 3 10 7 7 3 -4 3 -10 0 -14z m500 10 c-4 -3 -10 -3 -14 0 -3 4 0 7 7 7 7 0 10 -3 7 -7z m38 -3 c3 -5 -1 -10 -10 -10 -9 0 -13 5 -10 10 3 6 8 10 10 10 2 0 7 -4 10 -10z m42 -17 c-4 -3 -10 -3 -14 0 -3 4 0 7 7 7 7 0 10 -3 7 -7z m1270 -10 c-4 -3 -7 0 -7 7 0 7 3 10 7 7 3 -4 3 -10 0 -14z m-417 -19 c0 -8 -5 -12 -10 -9 -6 4 -8 11 -5 16 9 14 15 11 15 -7z m-1413 -11 c-4 -3 -7 0 -7 7 0 7 3 10 7 7 3 -4 3 -10 0 -14z m630 0 c-4 -3 -7 0 -7 7 0 7 3 10 7 7 3 -4 3 -10 0 -14z m28 -33 c3 -5 4 -10 1 -10 -3 0 -8 5 -11 10 -3 6 -4 10 -1 10 3 0 8 -4 11 -10z m-615 -40 c6 -11 8 -20 6 -20 -3 0 -10 9 -16 20 -6 11 -8 20 -6 20 3 0 10 -9 16 -20z m651 3 c13 -16 12 -17 -3 -4 -10 7 -18 15 -18 17 0 8 8 3 21 -13z m689 3 c0 -2 -8 -10 -17 -17 -16 -13 -17 -12 -4 4 13 16 21 21 21 13z m390 -20 c0 -3 -5 -8 -12 -12 -7 -4 -8 -3 -4 4 7 12 16 16 16 8z m-1705 -26 c3 -5 4 -10 1 -10 -3 0 -8 5 -11 10 -3 6 -4 10 -1 10 3 0 8 -4 11 -10z m20 -30 c3 -5 4 -10 1 -10 -3 0 -8 5 -11 10 -3 6 -4 10 -1 10 3 0 8 -4 11 -10z m762 3 c-4 -3 -10 -3 -14 0 -3 4 0 7 7 7 7 0 10 -3 7 -7z m48 -3 c3 -5 -1 -10 -10 -10 -9 0 -13 5 -10 10 3 6 8 10 10 10 2 0 7 -4 10 -10z m330 0 c3 -5 -1 -10 -10 -10 -9 0 -13 5 -10 10 3 6 8 10 10 10 2 0 7 -4 10 -10z m515 6 c0 -3 -5 -8 -12 -12 -7 -4 -8 -3 -4 4 7 12 16 16 16 8z m-785 -16 c3 -5 -3 -10 -15 -10 -12 0 -18 5 -15 10 3 6 10 10 15 10 5 0 12 -4 15 -10z m220 0 c3 -5 -1 -10 -10 -10 -9 0 -13 5 -10 10 3 6 8 10 10 10 2 0 7 -4 10 -10z m-1070 -20 c3 -5 4 -10 1 -10 -3 0 -8 5 -11 10 -3 6 -4 10 -1 10 3 0 8 -4 11 -10z m1605 -4 c0 -3 -5 -8 -12 -12 -7 -4 -8 -3 -4 4 7 12 16 16 16 8z m-1560 -51 c13 -14 21 -25 18 -25 -2 0 -15 11 -28 25 -13 14 -21 25 -18 25 2 0 15 -11 28 -25z m1530 12 c0 -1 -33 -34 -72 -72 l-73 -70 70 73 c64 67 75 77 75 69z m-1424 -119 l29 -33 -32 29 c-31 28 -38 36 -30 36 2 0 16 -15 33 -32z m1274 -22 c0 -2 -8 -10 -17 -17 -16 -13 -17 -12 -4 4 13 16 21 21 21 13z m-1225 -16 c3 -5 4 -10 1 -10 -3 0 -8 5 -11 10 -3 6 -4 10 -1 10 3 0 8 -4 11 -10z m1185 -14 c0 -3 -5 -8 -12 -12 -7 -4 -8 -3 -4 4 7 12 16 16 16 8z m-1145 -16 c3 -5 4 -10 1 -10 -3 0 -8 5 -11 10 -3 6 -4 10 -1 10 3 0 8 -4 11 -10z m50 -30 c3 -5 4 -10 1 -10 -3 0 -8 5 -11 10 -3 6 -4 10 -1 10 3 0 8 -4 11 -10z m1015 -4 c0 -3 -5 -8 -12 -12 -7 -4 -8 -3 -4 4 7 12 16 16 16 8z m-100 -56 c-8 -5 -19 -10 -25 -10 -5 0 -3 5 5 10 8 5 20 10 25 10 6 0 3 -5 -5 -10z m-783 -7 c-4 -3 -10 -3 -14 0 -3 4 0 7 7 7 7 0 10 -3 7 -7z m680 -30 c-4 -3 -10 -3 -14 0 -3 4 0 7 7 7 7 0 10 -3 7 -7z m-30 -10 c-4 -3 -10 -3 -14 0 -3 4 0 7 7 7 7 0 10 -3 7 -7z m-490 -10 c-4 -3 -10 -3 -14 0 -3 4 0 7 7 7 7 0 10 -3 7 -7z m450 0 c-4 -3 -10 -3 -14 0 -3 4 0 7 7 7 7 0 10 -3 7 -7z m-387 -7 c0 -11 -19 -15 -25 -6 -3 5 1 10 9 10 9 0 16 -2 16 -4z m340 0 c0 -11 -19 -15 -25 -6 -3 5 1 10 9 10 9 0 16 -2 16 -4z m-262 -13 c-10 -2 -28 -2 -40 0 -13 2 -5 4 17 4 22 1 32 -1 23 -4z m190 0 c-10 -2 -26 -2 -35 0 -10 3 -2 5 17 5 19 0 27 -2 18 -5z"/>
 </g>
<g id="layer105" fill="#9fe2fb" stroke="none">
 <path d="M0 1521 c0 -276 4 -432 10 -436 6 -4 10 11 10 37 0 24 9 76 20 116 92 330 371 598 713 684 45 11 84 22 86 24 2 2 -185 4 -417 4 l-422 0 0 -429z"/>
 <path d="M1171 1946 c2 -2 42 -14 89 -26 166 -42 339 -141 455 -259 142 -144 207 -261 273 -491 7 -25 10 81 11 373 l1 407 -417 0 c-229 0 -414 -2 -412 -4z"/>
 <path d="M1080 1079 c-30 -5 -84 -23 -120 -40 l-65 -30 -87 12 c-105 14 -234 7 -302 -17 -30 -10 -69 -36 -99 -65 -47 -46 -50 -50 -44 -90 12 -89 119 -167 274 -198 78 -16 86 -20 98 -47 19 -46 90 -101 159 -123 217 -71 497 -44 575 55 26 33 28 92 5 137 -9 17 -13 33 -8 34 5 2 27 13 49 26 54 30 85 79 85 133 0 36 -6 49 -37 79 -100 97 -330 161 -483 134z"/>
 <path d="M7 874 c-4 -4 -7 -202 -7 -441 l0 -433 484 0 c267 0 487 4 490 9 3 4 -38 11 -92 14 -211 11 -435 120 -605 294 -139 143 -239 341 -256 506 -3 33 -9 55 -14 51z"/>
 <path d="M1976 760 c-51 -226 -207 -446 -414 -584 -138 -91 -329 -156 -462 -156 -45 0 -69 -4 -65 -10 4 -6 177 -10 486 -10 l479 0 0 415 c0 228 -2 415 -4 415 -2 0 -11 -32 -20 -70z"/>
 </g>
<g id="layer106" fill="#ffffff" stroke="none">
 <path d="M1 1518 l0 -433 28 110 c16 61 42 139 58 175 122 269 376 479 666 552 45 11 84 22 86 24 2 2 -185 4 -417 4 l-422 0 1 -432z"/>
 <path d="M1171 1946 c2 -2 42 -14 89 -26 166 -42 339 -141 455 -259 142 -144 207 -261 273 -491 7 -25 10 81 11 373 l1 407 -417 0 c-229 0 -414 -2 -412 -4z"/>
 <path d="M1080 1079 c-30 -5 -84 -23 -120 -40 l-65 -30 -87 12 c-105 14 -234 7 -302 -17 -30 -10 -69 -36 -99 -65 -47 -46 -50 -50 -44 -90 12 -89 119 -167 274 -198 78 -16 86 -20 98 -47 19 -46 90 -101 159 -123 217 -71 497 -44 575 55 26 33 28 92 5 137 -9 17 -13 33 -8 34 5 2 27 13 49 26 54 30 85 79 85 133 0 36 -6 49 -37 79 -100 97 -330 161 -483 134z"/>
 <path d="M1 438 l-1 -438 487 0 c267 0 484 2 482 4 -2 2 -46 9 -97 15 -270 33 -529 185 -689 407 -57 79 -130 237 -148 321 -10 43 -21 89 -25 103 -5 14 -9 -172 -9 -412z"/>
 <path d="M1976 760 c-64 -284 -290 -549 -568 -666 -85 -36 -200 -67 -308 -82 -46 -6 78 -10 418 -11 l482 -1 0 415 c0 228 -2 415 -4 415 -2 0 -11 -32 -20 -70z"/>
 </g>

</svg>