<!DOCTYPE svg PUBLIC "-//W3C//DTD SVG 20010904//EN" "http://www.w3.org/TR/2001/REC-SVG-20010904/DTD/svg10.dtd">
<svg version="1.0" xmlns="http://www.w3.org/2000/svg" width="1207px" height="1222px" viewBox="0 0 12070 12220" preserveAspectRatio="xMidYMid meet">
<g id="layer101" fill="#4b4b4b" stroke="none">
 <path d="M10541 12204 c-62 -23 -117 -82 -135 -145 -45 -149 9 -265 149 -320 54 -21 76 -23 224 -24 l163 0 -4 -102 c-5 -109 -16 -138 -65 -170 -39 -26 -210 -23 -317 6 -44 11 -83 21 -88 21 -8 0 -3 -71 8 -112 9 -31 164 -68 290 -68 132 0 228 31 277 90 52 61 60 111 64 400 2 146 6 275 8 288 5 18 12 22 46 22 l41 0 -7 58 c-4 31 -9 59 -12 62 -2 3 -41 5 -85 5 -77 0 -80 -1 -109 -33 -16 -18 -29 -39 -29 -48 0 -11 -8 -9 -34 11 -61 47 -132 67 -241 71 -74 3 -111 0 -144 -12z m289 -130 c25 -8 60 -23 78 -34 l32 -20 0 -100 0 -100 -117 0 c-144 0 -186 11 -235 60 -34 33 -38 43 -38 87 0 52 17 85 53 105 53 28 141 29 227 2z"/>
 <path d="M9416 12199 c-188 -29 -290 -143 -316 -356 -20 -166 13 -328 88 -427 124 -164 420 -179 553 -28 56 64 74 126 72 249 -1 57 -4 107 -8 113 -4 6 -103 10 -272 10 l-266 0 5 71 c4 51 13 86 34 127 25 49 38 61 88 86 52 27 67 30 144 29 48 -1 121 -9 162 -17 41 -9 76 -16 78 -16 6 0 -10 115 -17 122 -26 29 -246 53 -345 37z m251 -597 c-12 -141 -110 -216 -236 -182 -83 22 -132 88 -156 208 l-7 32 203 0 202 0 -6 -58z"/>
 <path d="M10030 11590 l0 -620 34 0 c18 0 54 -3 80 -6 l46 -7 0 627 0 626 -80 0 -80 0 0 -620z"/>
 <path d="M11296 12198 c4 -7 70 -106 146 -220 76 -114 138 -212 138 -218 0 -6 -65 -108 -145 -228 l-145 -217 82 -3 c45 -2 87 -1 93 2 7 2 56 77 110 165 53 89 101 163 105 166 4 2 54 -72 110 -165 l103 -170 88 0 c49 0 89 2 89 5 0 2 -65 104 -145 225 l-145 221 141 210 c77 116 143 217 146 225 4 11 -11 14 -88 14 l-94 0 -101 -171 -101 -170 -102 171 -102 170 -95 0 c-73 0 -93 -3 -88 -12z"/>
 <path d="M8510 11740 l0 -450 38 0 c20 0 47 -3 58 -6 19 -5 23 0 34 46 12 50 13 51 34 36 99 -72 184 -96 267 -76 38 9 49 16 45 29 -2 9 -7 39 -11 68 l-7 51 -31 -9 c-44 -13 -140 6 -202 39 l-50 27 -3 348 -2 347 -85 0 -85 0 0 -450z"/>
 <path d="M668 10720 c-226 -41 -403 -161 -507 -344 -55 -97 -113 -267 -138 -401 -15 -82 -18 -152 -18 -385 0 -269 2 -292 26 -405 114 -523 434 -750 999 -705 138 11 356 50 414 74 l32 13 12 119 c6 65 10 119 8 121 -1 2 -23 -4 -47 -13 -72 -25 -204 -54 -318 -69 -498 -67 -743 113 -812 597 -6 46 -11 169 -11 273 1 373 65 616 202 756 102 104 213 142 410 141 156 -1 289 -21 449 -67 68 -19 125 -34 127 -32 4 4 -21 236 -27 241 -9 9 -187 57 -269 73 -96 18 -456 27 -532 13z"/>
 <path d="M2280 10714 c-149 -32 -305 -144 -383 -275 -147 -249 -157 -710 -20 -988 50 -101 160 -214 254 -259 112 -54 177 -67 339 -67 161 0 225 13 339 67 93 44 203 157 254 259 137 278 127 739 -20 988 -81 135 -232 243 -388 276 -88 18 -288 18 -375 -1z m350 -235 c110 -51 170 -132 212 -286 29 -109 32 -399 4 -518 -47 -203 -139 -300 -308 -324 -115 -16 -231 9 -305 65 -112 85 -175 319 -159 585 23 355 151 514 411 506 71 -2 102 -8 145 -28z"/>
 <path d="M3881 10714 c-160 -43 -258 -153 -314 -353 -20 -73 -21 -100 -25 -648 l-3 -573 140 0 141 0 0 443 c0 484 9 650 39 745 39 126 102 173 242 180 128 6 306 -45 410 -118 l29 -21 0 -615 0 -614 145 0 145 0 0 784 0 784 -101 7 c-55 4 -104 3 -109 -1 -4 -5 -13 -38 -19 -74 -20 -109 -15 -105 -74 -61 -70 53 -185 106 -281 131 -96 24 -282 27 -365 4z"/>
 <path d="M5692 10710 c-254 -67 -417 -274 -462 -589 -20 -133 -8 -382 23 -503 29 -111 88 -231 147 -300 55 -64 159 -131 255 -165 75 -26 90 -28 245 -27 145 0 178 3 273 27 167 42 161 36 174 159 6 57 10 104 9 105 -1 1 -31 -6 -66 -17 -196 -58 -419 -71 -521 -31 -109 42 -188 140 -223 278 -55 212 -37 513 40 667 34 69 106 140 168 167 98 43 311 36 507 -17 51 -13 93 -23 95 -21 2 1 -2 49 -9 107 l-12 103 -67 23 c-165 55 -433 71 -576 34z"/>
 <path d="M6710 9655 l0 -1074 33 -5 c17 -3 64 -8 102 -11 39 -3 89 -8 113 -12 l42 -5 0 381 c0 209 3 381 6 381 3 0 26 -14 50 -31 128 -88 275 -129 456 -129 175 0 274 35 352 121 58 64 93 140 119 253 19 84 21 132 24 649 l4 557 -145 0 -146 0 0 -484 c0 -499 -5 -586 -41 -703 -35 -113 -117 -173 -237 -173 -71 0 -191 39 -317 102 l-125 62 0 598 0 598 -145 0 -145 0 0 -1075z"/>
 <path d="M8510 9641 l0 -1091 364 0 c512 0 654 18 831 105 227 111 350 289 412 594 26 127 25 613 -1 756 -43 234 -109 378 -231 501 -67 68 -96 89 -175 127 -180 88 -198 90 -732 94 l-468 4 0 -1090z m740 859 c336 -30 483 -142 555 -424 57 -226 59 -659 4 -876 -55 -216 -172 -340 -374 -396 -48 -14 -119 -18 -342 -22 l-283 -4 0 866 0 866 163 0 c89 0 214 -5 277 -10z"/>
 <path d="M10590 9641 l0 -1091 359 0 c197 0 404 5 460 10 340 35 502 155 546 407 38 210 -3 375 -118 479 -50 45 -156 104 -186 104 -28 0 4 17 54 29 67 17 157 66 214 117 99 90 151 228 151 405 0 331 -140 522 -441 601 -80 21 -108 22 -561 25 l-478 4 0 -1090z m796 859 c300 -27 404 -131 404 -405 0 -187 -59 -299 -190 -359 -94 -43 -206 -56 -476 -56 l-244 0 0 415 0 415 198 0 c108 0 247 -5 308 -10z m35 -1043 c184 -46 263 -152 263 -352 -1 -133 -44 -219 -136 -266 -80 -41 -153 -51 -415 -56 l-253 -5 0 352 0 353 243 -6 c157 -4 261 -10 298 -20z"/>
 <path d="M950 7901 c-463 -101 -760 -531 -884 -1281 -62 -375 -61 -337 -61 -1820 0 -1251 1 -1363 18 -1465 48 -299 130 -514 260 -687 144 -191 333 -306 599 -365 125 -27 403 -24 512 6 197 53 338 163 414 321 84 176 77 -39 77 2485 l0 2240 -22 87 c-63 248 -219 404 -468 469 -117 30 -331 35 -445 10z"/>
 <path d="M2816 7905 c-284 -57 -447 -197 -522 -450 -21 -74 -27 -117 -31 -240 -10 -293 51 -484 199 -626 65 -62 200 -131 305 -156 75 -17 211 -18 3278 -18 l3200 0 90 28 c129 40 200 82 281 162 81 80 131 170 166 300 18 68 21 107 21 260 0 153 -3 192 -21 260 -67 248 -215 397 -467 468 l-80 22 -3175 2 c-2653 1 -3186 -1 -3244 -12z"/>
 <path d="M10780 7914 c-187 -34 -320 -95 -413 -188 -83 -83 -140 -196 -168 -330 -19 -93 -19 -148 -17 -2338 3 -2147 4 -2246 22 -2308 88 -311 310 -471 676 -487 152 -7 307 14 443 58 352 115 583 397 686 836 56 241 55 201 59 1503 3 1219 -1 1438 -34 1725 -88 773 -323 1249 -711 1444 -118 59 -222 83 -378 86 -77 2 -151 2 -165 -1z"/>
 <path d="M2875 6029 c-312 -40 -514 -203 -586 -476 -33 -121 -38 -366 -10 -498 51 -248 187 -406 421 -487 143 -50 24 -48 3335 -48 2004 0 3115 4 3160 10 357 51 549 235 601 573 31 197 3 440 -67 580 -57 116 -150 212 -259 267 -65 33 -196 68 -293 79 -120 14 -6196 13 -6302 0z"/>
 <path d="M3156 4135 c-428 -59 -708 -274 -829 -637 -42 -126 -58 -230 -67 -455 -10 -234 -19 -304 -55 -438 -47 -178 -126 -316 -249 -432 -176 -168 -398 -251 -743 -279 l-83 -7 0 -102 c0 -317 78 -671 202 -918 106 -213 265 -402 446 -531 217 -154 511 -261 857 -313 113 -17 299 -18 3390 -18 2664 0 3289 2 3370 13 987 132 1497 700 1542 1719 l6 150 -94 7 c-210 16 -367 54 -515 126 -123 59 -223 138 -300 233 -66 82 -143 238 -174 347 -28 103 -50 280 -50 406 0 419 -129 744 -367 923 -120 90 -265 152 -453 194 l-95 21 -2820 2 c-2328 2 -2837 0 -2919 -11z"/>
 </g>
<g id="layer102" fill="#e42528" stroke="none">
 <path d="M950 7901 c-463 -101 -760 -531 -884 -1281 -62 -375 -61 -337 -61 -1820 0 -1251 1 -1363 18 -1465 48 -299 130 -514 260 -687 144 -191 333 -306 599 -365 125 -27 403 -24 512 6 197 53 338 163 414 321 84 176 77 -39 77 2485 l0 2240 -22 87 c-63 248 -219 404 -468 469 -117 30 -331 35 -445 10z"/>
 <path d="M2816 7905 c-284 -57 -447 -197 -522 -450 -21 -74 -27 -117 -31 -240 -10 -293 51 -484 199 -626 65 -62 200 -131 305 -156 75 -17 211 -18 3278 -18 l3200 0 90 28 c129 40 200 82 281 162 81 80 131 170 166 300 18 68 21 107 21 260 0 153 -3 192 -21 260 -67 248 -215 397 -467 468 l-80 22 -3175 2 c-2653 1 -3186 -1 -3244 -12z"/>
 <path d="M10780 7914 c-187 -34 -320 -95 -413 -188 -83 -83 -140 -196 -168 -330 -19 -93 -19 -148 -17 -2338 3 -2147 4 -2246 22 -2308 88 -311 310 -471 676 -487 152 -7 307 14 443 58 352 115 583 397 686 836 56 241 55 201 59 1503 3 1219 -1 1438 -34 1725 -88 773 -323 1249 -711 1444 -118 59 -222 83 -378 86 -77 2 -151 2 -165 -1z"/>
 <path d="M2875 6029 c-312 -40 -514 -203 -586 -476 -33 -121 -38 -366 -10 -498 51 -248 187 -406 421 -487 143 -50 24 -48 3335 -48 2004 0 3115 4 3160 10 357 51 549 235 601 573 31 197 3 440 -67 580 -57 116 -150 212 -259 267 -65 33 -196 68 -293 79 -120 14 -6196 13 -6302 0z"/>
 <path d="M3156 4135 c-428 -59 -708 -274 -829 -637 -42 -126 -58 -230 -67 -455 -10 -234 -19 -304 -55 -438 -47 -178 -126 -316 -249 -432 -176 -168 -398 -251 -743 -279 l-83 -7 0 -102 c0 -317 78 -671 202 -918 106 -213 265 -402 446 -531 217 -154 511 -261 857 -313 113 -17 299 -18 3390 -18 2664 0 3289 2 3370 13 987 132 1497 700 1542 1719 l6 150 -94 7 c-210 16 -367 54 -515 126 -123 59 -223 138 -300 233 -66 82 -143 238 -174 347 -28 103 -50 280 -50 406 0 419 -129 744 -367 923 -120 90 -265 152 -453 194 l-95 21 -2820 2 c-2328 2 -2837 0 -2919 -11z"/>
 </g>

</svg>