<!DOCTYPE svg PUBLIC "-//W3C//DTD SVG 20010904//EN" "http://www.w3.org/TR/2001/REC-SVG-20010904/DTD/svg10.dtd">
<svg version="1.0" xmlns="http://www.w3.org/2000/svg" width="417px" height="121px" viewBox="0 0 4170 1210" preserveAspectRatio="xMidYMid meet">
<g id="layer101" fill="#101010" stroke="none">
 <path d="M0 605 l0 -605 2085 0 2085 0 0 605 0 605 -2085 0 -2085 0 0 -605z"/>
 </g>
<g id="layer102" fill="#2a2a2a" stroke="none">
 <path d="M0 1085 l0 -125 334 0 333 0 40 -52 c21 -29 78 -104 127 -166 48 -63 85 -116 83 -118 -5 -5 -20 14 -171 210 l-89 116 -329 0 -328 0 0 -475 0 -475 318 2 317 3 -305 5 -305 5 308 3 c199 1 307 -2 307 -8 0 -7 595 -10 1765 -10 l1765 0 0 605 0 605 -2085 0 -2085 0 0 -125z m1302 -344 c0 -248 -2 -454 -6 -458 -3 -3 -6 202 -6 457 0 255 2 461 5 458 3 -3 6 -208 7 -457z m379 218 c47 -16 107 -61 134 -101 65 -98 86 -269 46 -384 -12 -32 -21 -60 -21 -61 0 -2 -5 -3 -10 -3 -7 0 -6 8 1 23 17 31 38 134 38 187 1 75 -31 180 -69 232 -65 86 -143 117 -262 104 -36 -4 -47 -3 -33 3 29 14 136 13 176 0z m1031 3 c10 -4 -29 -7 -85 -7 -82 0 -108 -4 -130 -18 -15 -9 -27 -14 -27 -10 0 5 -5 0 -11 -9 -5 -10 -17 -18 -24 -18 -8 0 -15 -7 -15 -15 0 -7 -8 -18 -17 -24 -10 -5 -17 -13 -17 -18 1 -4 -3 -17 -8 -28 -5 -11 -18 -60 -28 -110 l-20 -90 4 65 c8 130 77 241 169 274 43 15 178 20 209 8z m668 -2 c16 -6 -1 -7 -45 -4 -60 5 -137 -2 -195 -17 -8 -2 -20 -11 -27 -19 -8 -10 -12 -11 -13 -3 0 16 16 25 65 40 47 13 179 15 215 3z m638 -2 c91 -22 142 -84 142 -170 0 -52 -4 -62 -34 -95 -25 -28 -52 -44 -102 -60 -80 -26 -174 -48 -191 -47 -7 1 -13 -2 -13 -6 0 -4 -17 -12 -38 -18 -48 -15 -88 -57 -94 -101 -7 -47 10 -121 28 -121 8 0 14 -5 14 -10 0 -22 94 -53 165 -54 77 -1 133 17 194 62 l36 26 -25 -28 c-49 -54 -95 -71 -200 -71 -80 0 -102 4 -136 23 -55 30 -71 49 -85 103 -14 53 1 127 30 152 20 17 118 57 140 57 18 0 189 47 228 62 11 4 61 52 60 58 0 3 3 23 8 44 10 51 -8 102 -50 141 -36 34 -38 34 -118 48 -37 6 -80 6 -125 0 -86 -13 -94 -15 -110 -33 -11 -13 -12 -12 -3 5 19 39 179 58 279 33z m-2828 -25 c-11 -16 -28 -39 -38 -53 -28 -42 -154 -195 -163 -198 -5 -2 -9 -9 -9 -15 -1 -16 -39 -65 -40 -51 0 15 114 168 184 247 9 9 16 19 16 23 0 10 55 74 63 74 5 0 -1 -12 -13 -27z m842 -260 c2 -106 0 -185 -4 -175 -4 9 -6 118 -5 242 1 253 5 222 9 -67z m-585 253 c-21 -13 -56 -47 -78 -76 -44 -59 -51 -59 -15 -1 28 44 93 101 116 101 8 0 -2 -11 -23 -24z m1356 -3 c21 -15 51 -45 66 -67 29 -43 55 -126 40 -126 -5 0 -9 9 -9 20 0 28 -43 111 -72 136 -12 12 -39 31 -58 43 -19 11 -28 21 -21 21 8 0 32 -12 54 -27z m643 12 c4 -8 9 -13 14 -10 10 6 47 -35 59 -68 18 -48 12 -147 -9 -147 -4 0 -3 19 2 43 15 63 -3 120 -50 154 -55 40 -58 43 -39 43 10 0 20 -7 23 -15z m-3429 -342 c-1 -65 -3 -12 -3 117 0 129 2 182 3 118 2 -65 2 -171 0 -235z m3686 293 c-10 -14 -22 -26 -26 -26 -5 0 1 14 13 31 12 16 24 28 27 25 3 -2 -3 -16 -14 -30z m-648 -33 c-10 -14 -21 -49 -26 -77 -8 -49 -8 -48 -4 13 5 62 17 91 37 91 6 0 2 -12 -7 -27z m620 -20 c-4 -10 -11 -33 -15 -51 -12 -51 -22 -52 -14 -2 4 25 11 47 16 48 4 2 6 8 2 13 -3 5 0 9 6 9 8 0 9 -7 5 -17z m-2358 -85 c-3 -8 -6 -5 -6 6 -1 11 2 17 5 13 3 -3 4 -12 1 -19z m2161 -69 c-14 -21 -124 -69 -159 -69 -39 0 -205 -62 -229 -86 -22 -21 -25 -33 -25 -93 0 -80 11 -97 83 -132 84 -40 232 -27 290 25 30 26 53 70 63 116 l7 35 1 -42 c0 -24 -4 -43 -10 -43 -5 0 -7 -4 -4 -10 3 -5 1 -10 -5 -10 -6 0 -9 -4 -5 -9 3 -6 -3 -14 -12 -20 -10 -5 -18 -13 -18 -18 0 -4 -3 -7 -7 -6 -5 2 -8 -1 -8 -6 0 -5 -22 -18 -49 -30 -116 -49 -286 -9 -330 78 -32 62 -25 140 16 164 7 5 10 13 7 19 -4 7 -2 8 4 4 7 -4 12 -3 12 2 0 12 56 33 64 25 3 -4 6 -1 6 6 0 8 7 11 15 7 8 -3 15 -1 15 4 0 6 8 10 19 10 40 0 226 60 245 80 26 26 32 26 14 -1z m-563 -167 c-25 -117 -75 -184 -170 -228 -112 -53 -253 -16 -334 86 -36 46 -49 70 -37 70 2 0 16 -19 31 -41 41 -62 73 -87 145 -110 169 -54 333 57 355 241 3 30 9 64 13 75 5 18 6 18 10 2 2 -10 -4 -53 -13 -95z m-1918 18 c27 -36 80 -105 117 -153 37 -49 65 -91 63 -94 -4 -3 -110 131 -192 243 -11 15 -31 41 -45 58 -15 18 -18 26 -8 20 9 -5 38 -38 65 -74z m1367 -55 l7 -30 -16 28 c-9 16 -18 54 -21 85 l-4 57 14 -55 c7 -30 16 -68 20 -85z m-1510 19 c-36 -49 -73 -94 -80 -100 -8 -6 -14 -16 -14 -22 0 -6 -4 -14 -10 -17 -22 -14 -7 16 38 74 26 33 64 83 86 111 21 28 40 49 43 47 2 -3 -26 -45 -63 -93z m463 -1 c-4 -3 -7 0 -7 7 0 7 3 10 7 7 3 -4 3 -10 0 -14z m-854 -30 c-78 -2 -208 -2 -290 0 -81 1 -18 3 142 3 160 0 226 -2 148 -3z m897 -61 c0 -5 16 -23 35 -42 19 -19 35 -38 35 -44 0 -5 -14 3 -30 19 -34 32 -80 106 -80 127 0 7 9 -2 20 -20 11 -18 20 -36 20 -40z m700 33 c0 -5 -5 -3 -10 5 -5 8 -10 20 -10 25 0 6 5 3 10 -5 5 -8 10 -19 10 -25z m2076 -20 c-4 -25 -11 -45 -16 -45 -6 0 -5 11 0 26 6 14 10 37 10 51 0 15 3 24 6 20 4 -3 3 -27 0 -52z m-4119 -283 c-1 -59 -3 -10 -3 108 0 118 2 167 3 107 2 -59 2 -155 0 -215z m2010 185 c-2 -23 -3 -1 -3 48 0 50 1 68 3 42 2 -26 2 -67 0 -90z m110 9 c18 -15 62 -34 105 -46 65 -17 69 -19 33 -19 -44 -1 -145 41 -145 60 0 7 -3 9 -6 6 -8 -7 -64 60 -64 76 0 6 10 -3 23 -20 12 -16 36 -42 54 -57z m-339 32 c-49 -60 -127 -98 -198 -98 -63 0 -100 8 -100 21 0 5 12 6 28 2 93 -27 232 22 271 95 6 12 17 22 23 22 6 0 -5 -19 -24 -42z m-1079 -45 c-13 -16 -25 -30 -26 -32 -2 -2 -5 -2 -8 1 -6 6 40 58 51 58 4 0 -3 -12 -17 -27z m771 -25 c0 -4 -11 -2 -25 4 -14 6 -25 15 -25 19 0 4 11 2 25 -4 14 -7 25 -15 25 -19z"/>
 <path d="M3709 533 c-13 -16 -12 -17 4 -4 16 13 21 21 13 21 -2 0 -10 -8 -17 -17z"/>
 </g>
<g id="layer103" fill="#4f4f4f" stroke="none">
 <path d="M0 1085 l0 -125 334 0 335 0 28 -37 c38 -51 159 -208 201 -261 l34 -42 79 102 c44 57 103 133 131 171 29 37 59 67 66 67 10 0 9 -6 -5 -23 -149 -184 -253 -321 -253 -332 0 -4 54 -80 121 -167 66 -88 118 -162 116 -165 -6 -5 -80 86 -187 229 -75 100 -65 102 -150 -17 -96 -134 -161 -215 -171 -215 -13 0 7 29 131 190 53 69 99 130 103 136 3 6 -37 67 -89 135 -53 68 -112 145 -132 172 l-36 47 -316 -2 -315 -3 0 -235 0 -235 287 -3 c181 -1 288 -6 288 -12 0 -6 -106 -10 -290 -10 l-290 0 0 -215 0 -215 309 0 c196 0 312 -4 316 -10 4 -7 603 -10 1766 -10 l1759 0 0 365 c0 337 -5 408 -25 345 -10 -32 -72 -66 -160 -91 -213 -59 -245 -71 -270 -101 -20 -23 -25 -41 -25 -83 0 -64 30 -107 95 -136 47 -22 157 -25 218 -7 46 14 105 70 113 107 14 64 24 76 19 23 -8 -102 -82 -154 -225 -160 -77 -3 -90 -1 -139 25 -70 36 -93 68 -98 135 -8 102 41 148 192 183 199 46 266 84 280 159 11 54 -16 117 -64 150 -83 58 -258 58 -341 -1 -43 -31 -80 -101 -80 -152 0 -17 -4 -31 -10 -31 -13 0 -13 44 2 91 18 63 71 117 131 133 91 25 130 28 206 12 78 -16 134 -50 153 -92 6 -13 15 -24 20 -24 4 0 8 81 8 180 l0 180 -2085 0 -2085 0 0 -125z m1308 -100 c-2 -118 -1 -215 2 -215 3 0 13 20 23 44 24 59 102 131 158 147 54 15 153 15 194 -1 161 -62 241 -284 176 -491 -82 -261 -419 -283 -532 -35 -22 48 -21 48 -19 -65 1 -53 -3 -89 -9 -94 -8 -4 -11 129 -11 459 0 320 3 466 11 466 7 0 9 -69 7 -215z m1377 -16 c125 -23 201 -93 229 -211 3 -16 2 -28 -3 -28 -5 0 -13 15 -16 33 -28 129 -157 209 -309 192 -140 -15 -215 -106 -241 -287 l-6 -48 297 0 297 0 -6 -52 c-17 -144 -66 -225 -166 -275 -52 -27 -76 -33 -127 -33 -183 0 -306 147 -305 365 0 189 75 307 215 341 66 16 71 16 141 3z m727 -15 c128 -41 168 -210 67 -283 -20 -15 -73 -37 -116 -50 -256 -71 -271 -78 -293 -131 -19 -47 -8 -116 26 -151 43 -45 100 -62 191 -57 126 6 194 55 209 150 4 21 11 38 16 38 18 0 -3 -84 -31 -125 -76 -113 -333 -115 -412 -4 -19 27 -24 47 -24 94 0 107 29 128 254 186 175 45 215 77 215 172 0 116 -111 180 -280 162 -113 -12 -204 -98 -204 -192 0 -18 -4 -33 -10 -33 -14 0 -1 89 19 129 51 103 216 145 373 95z m-1358 -505 c36 -97 122 -165 216 -171 22 -1 40 -6 40 -10 0 -18 -79 -6 -136 21 -62 29 -96 65 -115 121 -18 51 -28 34 -32 -57 -1 -49 -3 70 -3 262 0 337 0 341 6 115 5 -187 10 -245 24 -281z"/>
 <path d="M1518 951 c-68 -14 -136 -70 -176 -146 -25 -47 -27 -59 -27 -180 0 -124 1 -133 29 -188 53 -103 138 -157 249 -157 166 0 271 131 271 335 0 240 -140 376 -346 336z"/>
 <path d="M2347 563 c28 -176 135 -283 282 -283 139 0 240 85 270 228 21 102 50 92 -273 92 l-285 0 6 -37z"/>
 <path d="M4161 824 c0 -11 3 -14 6 -6 3 7 2 16 -1 19 -3 4 -6 -2 -5 -13z"/>
 <path d="M4161 754 c0 -11 3 -14 6 -6 3 7 2 16 -1 19 -3 4 -6 -2 -5 -13z"/>
 </g>
<g id="layer104" fill="#6f6f6f" stroke="none">
 <path d="M0 1085 l0 -125 334 0 335 0 126 -162 c70 -90 130 -164 134 -166 5 -1 66 72 136 163 70 91 134 165 143 165 14 0 14 -2 0 -17 -27 -31 -238 -303 -249 -322 -10 -15 5 -41 111 -180 68 -89 120 -164 116 -168 -8 -9 -5 -12 -139 165 l-116 153 -117 -158 c-64 -87 -118 -160 -120 -162 -1 -1 -8 -1 -14 1 -7 2 44 78 113 169 l125 166 -81 105 c-45 57 -104 133 -131 169 l-49 64 -318 -3 -319 -3 0 -229 0 -230 290 0 c251 0 290 -2 290 -15 0 -13 -39 -15 -290 -15 l-290 0 2 -212 3 -213 305 -3 c183 -1 308 -6 314 -12 7 -7 627 -10 1768 -10 l1758 0 0 368 0 367 -33 -37 c-38 -45 -95 -70 -231 -103 -120 -30 -186 -61 -204 -95 -20 -40 -10 -125 19 -156 38 -42 96 -64 169 -64 87 0 134 15 180 56 31 28 41 47 50 91 8 35 15 52 21 46 14 -14 -7 -100 -33 -136 -34 -47 -109 -77 -199 -77 -94 0 -156 20 -200 66 -32 33 -34 39 -34 109 0 111 24 129 239 184 134 35 198 67 214 108 21 57 22 66 12 103 -12 45 -62 92 -117 111 -57 19 -179 17 -235 -4 -75 -29 -128 -105 -128 -184 0 -13 -4 -23 -10 -23 -19 0 -10 76 15 126 32 65 85 99 178 115 56 9 86 9 136 0 82 -15 111 -31 155 -83 l36 -42 0 182 0 182 -2085 0 -2085 0 0 -125z m1310 -97 l1 -213 29 56 c36 71 90 114 166 134 72 18 95 19 162 1 110 -30 189 -134 213 -282 20 -124 -19 -271 -92 -343 -85 -86 -216 -106 -326 -51 -70 35 -82 47 -123 121 l-30 54 0 -97 c0 -59 -4 -98 -10 -98 -7 0 -10 162 -10 465 0 303 3 465 10 465 6 0 10 -78 10 -212z m1432 -28 c58 -17 133 -91 157 -156 24 -62 25 -74 11 -74 -5 0 -13 12 -16 28 -12 51 -57 121 -93 146 -57 40 -91 49 -176 49 -96 0 -138 -15 -194 -73 -46 -47 -81 -141 -81 -216 l0 -44 290 0 290 0 0 -30 c0 -85 -37 -183 -92 -246 -100 -114 -298 -113 -413 1 -143 144 -127 476 28 587 62 44 189 57 289 28z m614 9 c122 -22 178 -79 179 -180 0 -103 -46 -138 -255 -194 -73 -20 -148 -44 -165 -55 -84 -52 -70 -178 25 -234 52 -31 208 -30 266 1 49 26 80 72 90 132 4 27 10 39 16 33 15 -15 0 -86 -25 -124 -13 -19 -46 -45 -76 -61 -46 -23 -67 -27 -136 -27 -69 0 -90 4 -135 28 -71 36 -93 67 -97 139 -7 104 35 141 209 184 126 30 180 50 215 77 65 49 65 152 -1 210 -49 43 -99 57 -193 56 -138 -2 -212 -54 -235 -168 -7 -31 -16 -56 -20 -56 -25 0 9 126 44 166 39 44 73 62 140 73 75 12 87 12 154 0z m-1324 -241 c4 -255 11 -288 72 -365 34 -42 117 -83 169 -83 20 0 37 -4 37 -10 0 -19 -85 -10 -135 14 -57 26 -97 68 -116 121 -7 19 -17 35 -21 35 -4 0 -8 -38 -8 -85 0 -50 -4 -85 -10 -85 -6 0 -10 122 -10 345 0 200 4 345 9 345 5 0 11 -103 13 -232z"/>
 <path d="M1508 946 c-93 -25 -167 -109 -189 -215 -18 -86 -7 -217 24 -284 49 -107 140 -167 253 -167 101 0 180 53 229 155 25 50 30 74 33 156 8 191 -60 314 -194 355 -57 17 -93 17 -156 0z"/>
 <path d="M2352 552 c11 -109 95 -226 186 -257 93 -31 207 -11 271 48 40 37 71 94 86 159 25 109 54 98 -266 98 l-282 0 5 -48z"/>
 <path d="M4160 830 c0 -7 3 -10 7 -7 3 4 3 10 0 14 -4 3 -7 0 -7 -7z"/>
 <path d="M4160 750 c0 -7 3 -10 7 -7 3 4 3 10 0 14 -4 3 -7 0 -7 -7z"/>
 </g>
<g id="layer105" fill="#8e8e8e" stroke="none">
 <path d="M0 1085 l0 -125 338 -1 337 0 125 -164 c69 -91 128 -165 131 -165 4 0 19 17 35 38 119 159 228 292 241 292 11 0 7 -10 -14 -37 -17 -21 -78 -100 -137 -176 -66 -85 -104 -142 -100 -150 6 -10 202 -270 237 -314 7 -9 5 -13 -5 -13 -9 0 -68 70 -133 155 -65 85 -121 155 -125 155 -3 0 -58 -70 -121 -155 -62 -85 -120 -155 -126 -155 -7 0 -13 2 -13 5 0 3 55 78 122 167 111 147 120 162 108 181 -7 12 -64 88 -127 169 l-115 148 -317 -2 -316 -3 -3 -227 -2 -228 291 -2 c221 -2 293 -6 296 -15 4 -10 -61 -13 -289 -15 l-293 -3 0 -210 0 -210 305 -3 c183 -1 308 -6 314 -12 7 -7 627 -10 1768 -10 l1758 0 0 367 0 368 -30 -36 c-37 -46 -68 -60 -220 -102 -133 -37 -165 -49 -191 -69 -44 -36 -52 -115 -16 -168 67 -100 284 -108 366 -14 30 33 37 51 43 103 4 32 28 40 28 9 0 -41 -20 -96 -45 -126 -63 -75 -235 -99 -340 -47 -71 34 -95 73 -95 153 0 106 39 133 279 192 97 24 127 38 159 73 73 78 22 207 -93 238 -48 14 -165 12 -218 -2 -21 -6 -55 -27 -77 -49 -31 -31 -42 -51 -52 -100 -6 -33 -16 -60 -20 -60 -18 0 -6 80 20 131 23 46 36 58 86 84 51 26 69 30 145 30 134 0 200 -27 253 -105 16 -24 17 -17 17 158 l1 182 -1442 -1 c-794 0 -1437 -3 -1430 -6 9 -3 12 -57 12 -216 l0 -212 19 41 c43 94 120 149 227 160 192 20 327 -126 329 -356 0 -106 -24 -190 -74 -256 -126 -167 -394 -133 -482 60 l-19 41 0 -97 c0 -80 -3 -98 -15 -98 -13 0 -15 59 -15 470 l0 470 -640 0 -640 0 0 -125z m2762 -133 c78 -34 135 -106 153 -191 12 -54 -14 -33 -35 29 -22 65 -90 133 -148 150 -61 16 -182 12 -227 -9 -85 -38 -141 -132 -152 -253 l-6 -58 293 0 293 0 -6 -62 c-9 -91 -33 -151 -83 -207 -102 -114 -279 -125 -400 -26 -88 73 -136 224 -116 367 21 143 89 240 192 273 61 20 183 13 242 -13z m619 14 c72 -16 117 -48 140 -100 32 -70 22 -136 -29 -189 -26 -27 -49 -36 -294 -108 -94 -27 -128 -58 -135 -121 -6 -64 20 -107 86 -140 98 -50 239 -32 300 38 27 30 51 88 51 122 0 6 5 12 10 12 16 0 11 -62 -9 -106 -35 -78 -113 -116 -236 -116 -157 1 -250 91 -223 217 16 74 59 99 257 149 56 14 114 32 129 40 120 63 113 209 -13 267 -47 22 -192 26 -246 7 -76 -26 -121 -81 -133 -163 -3 -22 -5 -41 -6 -42 0 -2 -5 -3 -11 -3 -19 0 -3 95 23 141 50 90 193 130 339 95z m-1341 -235 c0 -245 5 -277 55 -353 32 -48 100 -87 164 -95 32 -4 51 -11 51 -19 0 -9 -11 -11 -37 -8 -100 14 -181 66 -214 139 l-19 40 0 -82 c0 -67 -3 -83 -15 -83 -13 0 -15 45 -15 345 0 300 2 345 15 345 13 0 15 -32 15 -229z"/>
 <path d="M2350 572 c0 -53 40 -150 82 -197 51 -57 105 -86 178 -92 146 -14 264 85 289 243 5 32 7 62 4 67 -2 4 -128 7 -279 7 l-274 0 0 -28z"/>
 <path d="M1482 935 c-54 -24 -92 -55 -118 -96 -69 -109 -71 -315 -6 -421 129 -208 410 -173 482 60 51 165 4 355 -108 436 -40 28 -52 31 -130 34 -60 1 -97 -2 -120 -13z"/>
 </g>
<g id="layer106" fill="#b0b0b0" stroke="none">
 <path d="M0 1090 l0 -120 334 0 333 0 129 -169 c71 -94 131 -170 134 -170 3 0 64 76 135 169 113 147 155 191 155 163 0 -5 -61 -86 -135 -182 -74 -95 -132 -178 -128 -184 4 -6 60 -81 125 -166 65 -85 116 -156 113 -159 -12 -12 -40 18 -145 157 -63 83 -117 151 -120 151 -3 -1 -57 -70 -120 -155 -73 -99 -121 -155 -132 -155 -13 0 17 47 107 164 69 91 125 167 125 171 0 3 -57 80 -127 171 l-126 164 -314 0 -313 0 0 -230 0 -230 290 0 c251 0 290 -2 290 -15 0 -13 -39 -15 -290 -15 l-290 0 0 -210 0 -210 304 0 c261 0 305 -2 310 -15 5 -13 210 -15 1766 -15 l1760 0 0 365 0 365 -42 -44 c-45 -46 -59 -52 -266 -106 -90 -24 -140 -52 -160 -90 -16 -31 -10 -101 12 -135 38 -58 166 -90 263 -66 87 22 143 85 143 161 0 20 5 30 15 30 33 0 9 -104 -36 -155 -64 -72 -231 -92 -337 -39 -70 36 -96 76 -96 149 1 104 39 134 235 184 64 16 132 36 150 44 118 49 120 201 4 261 -33 17 -58 21 -145 21 -93 0 -110 -3 -150 -25 -51 -29 -86 -83 -96 -147 -3 -24 -10 -43 -15 -43 -17 0 -9 80 13 126 42 89 142 132 286 121 106 -8 160 -37 209 -113 9 -15 12 18 12 164 l1 182 -1442 -1 c-794 0 -1437 -3 -1430 -6 9 -3 12 -56 12 -216 l0 -212 24 51 c47 102 157 161 281 152 74 -6 129 -33 178 -87 46 -51 64 -86 82 -163 19 -80 19 -146 -1 -228 -37 -157 -138 -243 -284 -242 -115 0 -195 49 -254 152 l-26 45 0 -92 c0 -76 -3 -93 -15 -93 -13 0 -15 59 -15 470 l0 470 -640 0 -640 0 0 -120z m2761 -135 c89 -45 142 -111 155 -194 10 -60 -15 -52 -31 11 -19 77 -78 141 -154 166 -54 19 -179 15 -227 -7 -83 -38 -145 -145 -148 -255 l-1 -51 288 -3 287 -2 0 -43 c0 -102 -53 -214 -125 -266 -54 -38 -106 -54 -181 -53 -211 0 -348 228 -289 480 18 77 38 117 79 160 34 37 74 61 121 73 49 13 187 3 226 -16z m673 -5 c26 -12 59 -38 74 -58 23 -30 27 -45 27 -103 0 -62 -3 -71 -30 -99 -42 -44 -62 -53 -213 -94 -157 -43 -186 -56 -213 -99 -24 -38 -21 -99 6 -141 62 -94 285 -101 364 -11 17 20 33 47 36 60 3 14 7 36 10 50 8 37 25 30 25 -10 0 -73 -48 -138 -125 -171 -58 -24 -188 -23 -245 3 -86 39 -129 116 -110 197 13 59 53 93 143 121 43 14 84 25 92 25 8 0 50 11 94 25 102 33 141 72 141 143 0 58 -25 101 -76 133 -35 22 -50 24 -149 24 -102 0 -113 -2 -157 -27 -47 -28 -88 -91 -88 -135 0 -28 -10 -53 -21 -53 -13 0 -11 61 2 101 25 72 77 118 164 140 58 15 199 3 249 -21z m-1394 -231 c5 -221 7 -248 26 -289 39 -83 109 -134 204 -149 54 -8 55 -27 2 -23 -95 7 -174 57 -215 137 -16 30 -16 29 -17 -47 0 -63 -3 -78 -15 -78 -13 0 -15 46 -15 351 0 276 3 350 13 347 9 -4 13 -66 17 -249z"/>
 <path d="M2350 575 c0 -13 10 -54 22 -91 57 -176 234 -252 388 -168 81 44 132 132 142 244 l3 35 -277 3 -278 2 0 -25z"/>
 <path d="M1459 922 c-60 -31 -110 -94 -131 -165 -7 -23 -13 -87 -13 -142 1 -88 4 -107 29 -162 68 -149 229 -213 362 -145 177 91 210 422 57 577 -71 71 -207 88 -304 37z"/>
 </g>
<g id="layer107" fill="#ffffff" stroke="none">
 <path d="M0 1090 l0 -120 337 -2 336 -3 51 -66 c28 -36 85 -109 126 -162 41 -53 77 -97 81 -97 6 0 28 27 175 218 55 70 94 112 106 112 24 0 23 -2 -14 -48 -18 -22 -50 -62 -70 -88 -21 -27 -69 -89 -107 -138 l-69 -89 32 -42 c17 -24 73 -97 124 -164 50 -67 92 -123 92 -126 0 -15 -37 -2 -49 17 -8 12 -33 47 -57 78 -178 228 -166 214 -178 194 -6 -11 -57 -81 -114 -157 -75 -100 -108 -137 -123 -137 -19 0 -20 2 -8 19 8 10 64 85 124 166 61 81 109 151 107 156 -1 6 -57 82 -125 169 l-122 159 -312 1 -313 0 0 -230 0 -230 290 0 c251 0 290 -2 290 -15 0 -13 -39 -15 -290 -15 l-290 0 0 -210 0 -210 304 0 c261 0 305 -2 310 -15 5 -13 210 -15 1766 -15 l1760 0 0 368 0 367 -20 -33 c-25 -41 -87 -70 -225 -107 -199 -53 -228 -74 -229 -164 -1 -42 4 -55 29 -81 48 -51 81 -63 170 -63 134 -1 205 47 221 150 8 57 34 59 34 3 0 -87 -72 -161 -176 -180 -169 -32 -301 38 -312 164 -9 115 46 154 293 211 130 30 185 80 185 166 0 36 -6 48 -43 84 -49 50 -94 65 -188 65 -144 0 -239 -73 -239 -185 0 -28 -4 -35 -20 -35 -24 0 -25 16 -5 89 28 106 115 161 255 161 131 0 199 -27 247 -99 l23 -34 0 182 0 181 -1430 0 -1430 0 0 -212 1 -213 21 40 c29 56 75 103 130 131 69 35 185 34 254 -2 70 -37 90 -59 132 -143 36 -74 37 -77 37 -195 0 -116 -1 -124 -33 -188 -92 -189 -303 -235 -454 -99 -28 25 -59 63 -69 86 l-18 40 0 -92 c-1 -76 -4 -93 -16 -93 -13 0 -15 59 -15 470 l0 470 -640 0 -640 0 0 -120z m2762 -134 c86 -40 158 -134 158 -206 0 -47 -19 -32 -41 30 -27 78 -47 101 -119 138 -52 26 -75 32 -128 32 -118 0 -191 -40 -236 -129 -21 -41 -46 -138 -46 -178 0 -10 57 -13 291 -13 l292 0 -5 -77 c-12 -182 -126 -297 -293 -297 -223 0 -363 226 -300 485 40 166 126 238 287 239 72 0 97 -4 140 -24z m664 0 c28 -13 65 -41 82 -62 29 -34 32 -45 32 -102 0 -110 -47 -147 -251 -201 -182 -47 -202 -58 -219 -121 -19 -70 25 -147 99 -172 20 -7 71 -12 113 -11 64 0 84 5 122 27 57 33 74 58 82 118 5 39 10 48 26 48 18 0 19 -5 14 -37 -4 -21 -17 -58 -29 -83 -18 -37 -33 -50 -82 -75 -53 -27 -70 -30 -145 -29 -139 1 -221 53 -235 148 -7 44 6 107 28 134 19 23 79 48 187 77 155 40 192 55 228 91 27 27 32 39 32 80 0 102 -86 164 -229 164 -139 0 -223 -58 -236 -164 -6 -46 -11 -56 -26 -56 -17 0 -18 5 -13 43 21 143 106 205 279 206 74 1 99 -3 141 -23z m-1384 -233 c3 -218 5 -252 22 -283 51 -96 116 -146 201 -153 34 -3 50 -9 50 -18 0 -21 -38 -22 -98 -5 -75 22 -118 54 -149 111 l-28 50 0 -77 c0 -63 -3 -78 -15 -78 -13 0 -15 46 -15 350 0 295 2 350 14 350 12 0 15 -43 18 -247z"/>
 <path d="M2356 548 c3 -24 19 -71 36 -106 34 -72 106 -136 166 -149 63 -13 147 -6 190 16 82 42 152 155 152 247 l0 34 -275 0 -275 0 6 -42z"/>
 <path d="M1497 938 c-20 -6 -59 -30 -86 -54 -71 -63 -94 -128 -94 -259 -1 -123 23 -192 88 -259 55 -57 103 -78 185 -79 117 -2 204 64 247 186 26 74 25 224 -2 296 -25 67 -86 138 -140 162 -44 20 -135 24 -198 7z"/>
 </g>

</svg>