<!DOCTYPE svg PUBLIC "-//W3C//DTD SVG 20010904//EN" "http://www.w3.org/TR/2001/REC-SVG-20010904/DTD/svg10.dtd">
<svg version="1.0" xmlns="http://www.w3.org/2000/svg" width="198px" height="255px" viewBox="0 0 1980 2550" preserveAspectRatio="xMidYMid meet">
<g id="layer101" fill="#4eb87b" stroke="none">
 <path d="M0 1275 l0 -1275 990 0 990 0 0 1275 0 1275 -990 0 -990 0 0 -1275z"/>
 </g>
<g id="layer102" fill="#60bf88" stroke="none">
 <path d="M0 1275 l0 -1275 990 0 990 0 0 1275 0 1275 -990 0 -990 0 0 -1275z m691 1242 c-10 -9 -11 -8 -5 6 3 10 9 15 12 12 3 -3 0 -11 -7 -18z m-31 -57 c-6 -11 -13 -20 -16 -20 -2 0 0 9 6 20 6 11 13 20 16 20 2 0 0 -9 -6 -20z m-40 -70 c-6 -11 -13 -20 -16 -20 -2 0 0 9 6 20 6 11 13 20 16 20 2 0 0 -9 -6 -20z m-45 -80 c-9 -16 -18 -30 -21 -30 -2 0 2 14 11 30 9 17 18 30 21 30 2 0 -2 -13 -11 -30z m-40 -70 c-9 -16 -18 -30 -21 -30 -2 0 2 14 11 30 9 17 18 30 21 30 2 0 -2 -13 -11 -30z m-35 -60 c-6 -11 -13 -20 -16 -20 -2 0 0 9 6 20 6 11 13 20 16 20 2 0 0 -9 -6 -20z m-40 -70 c-6 -11 -13 -20 -16 -20 -2 0 0 9 6 20 6 11 13 20 16 20 2 0 0 -9 -6 -20z m-50 -90 c-6 -11 -13 -20 -16 -20 -2 0 0 9 6 20 6 11 13 20 16 20 2 0 0 -9 -6 -20z m-40 -70 c-6 -11 -13 -20 -16 -20 -2 0 0 9 6 20 6 11 13 20 16 20 2 0 0 -9 -6 -20z m-45 -80 c-9 -16 -18 -30 -21 -30 -2 0 2 14 11 30 9 17 18 30 21 30 2 0 -2 -13 -11 -30z m-40 -70 c-9 -16 -18 -30 -21 -30 -2 0 2 14 11 30 9 17 18 30 21 30 2 0 -2 -13 -11 -30z m-35 -60 c-6 -11 -13 -20 -16 -20 -2 0 0 9 6 20 6 11 13 20 16 20 2 0 0 -9 -6 -20z m-40 -70 c-6 -11 -13 -20 -16 -20 -2 0 0 9 6 20 6 11 13 20 16 20 2 0 0 -9 -6 -20z m-47 -85 c-3 -9 -8 -14 -10 -11 -3 3 -2 9 2 15 9 16 15 13 8 -4z m167 -578 c0 -2 -10 -12 -22 -23 l-23 -19 19 23 c18 21 26 27 26 19z m-160 -150 c0 -2 -12 -14 -27 -28 l-28 -24 24 28 c23 25 31 32 31 24z m280 -451 c0 -3 -5 -8 -12 -12 -7 -4 -8 -3 -4 4 7 12 16 16 16 8z m-293 -383 c-4 -3 -10 -3 -14 0 -3 4 0 7 7 7 7 0 10 -3 7 -7z"/>
 </g>
<g id="layer103" fill="#6dcb94" stroke="none">
 <path d="M0 1628 l0 -921 22 19 c12 10 38 35 57 54 81 80 303 286 317 293 27 15 28 13 -105 252 -34 61 -66 117 -71 125 -26 42 -70 124 -70 131 0 6 67 124 163 289 11 19 29 51 39 70 10 19 30 53 43 75 13 22 28 49 33 60 6 11 33 61 62 110 29 50 61 105 71 123 11 17 29 49 41 70 12 20 28 51 36 67 8 17 20 37 27 45 7 8 16 25 19 38 l7 22 -345 0 -346 0 0 -922z"/>
 <path d="M1300 2547 c0 -2 11 -24 25 -48 14 -24 32 -57 41 -74 8 -16 25 -47 37 -67 91 -156 437 -766 437 -771 0 -4 -190 -7 -422 -7 l-423 0 -139 -408 c-96 -283 -148 -421 -170 -452 -17 -24 -80 -109 -141 -188 -60 -79 -125 -164 -142 -189 -81 -112 -245 -323 -251 -323 -9 0 -20 46 -62 255 -47 234 -71 347 -80 375 -5 14 -9 -118 -9 -312 l-1 -338 990 0 990 0 0 1275 0 1275 -340 0 c-187 0 -340 -2 -340 -3z"/>
 </g>
<g id="layer104" fill="#7fd2a2" stroke="none">
 <path d="M0 1628 l0 -921 57 54 c283 266 353 333 353 341 0 4 -58 112 -130 239 -71 127 -130 234 -130 239 0 4 119 217 265 474 146 256 268 473 271 481 5 13 -37 15 -340 15 l-346 0 0 -922z"/>
 <path d="M1300 2546 c0 -2 124 -221 275 -487 l276 -483 -21 -28 c-11 -15 -20 -30 -20 -33 0 -4 -19 -39 -42 -78 -24 -40 -48 -83 -55 -97 -7 -14 -17 -32 -22 -40 -22 -34 -97 -166 -104 -184 -5 -13 -11 -15 -20 -9 -6 5 -131 108 -277 228 -146 120 -270 223 -277 228 -7 5 1 -29 16 -75 229 -664 250 -729 237 -734 -7 -3 -135 -4 -284 -2 -248 3 -271 2 -281 -14 -6 -10 -133 -179 -282 -375 l-271 -358 843 -3 c463 -1 844 0 847 2 2 3 -61 90 -140 195 -78 105 -204 273 -280 374 l-136 184 31 36 c18 19 50 57 72 83 40 47 64 75 109 124 12 14 33 40 46 58 13 17 29 32 35 32 6 0 92 -80 191 -178 99 -97 188 -183 197 -191 16 -13 17 46 17 908 l0 921 -340 0 c-187 0 -340 -2 -340 -4z"/>
 <path d="M0 337 l0 -337 70 0 c52 0 70 3 70 13 0 21 -130 650 -135 656 -3 2 -5 -147 -5 -332z"/>
 <path d="M1957 593 c-20 -99 -37 -186 -47 -243 -12 -67 -29 -157 -45 -231 -8 -37 -15 -79 -15 -93 0 -25 2 -26 65 -26 l65 0 0 335 c0 184 -1 335 -3 335 -2 0 -11 -35 -20 -77z"/>
 </g>
<g id="layer105" fill="#ffffff" stroke="none">
 <path d="M0 1628 l0 -921 57 54 c283 266 353 333 353 341 0 4 -58 112 -130 239 -71 127 -130 234 -130 239 0 4 119 217 265 474 146 256 268 473 271 481 5 13 -37 15 -340 15 l-346 0 0 -922z"/>
 <path d="M1300 2546 c0 -2 124 -220 275 -486 l274 -481 -129 -228 c-71 -126 -132 -235 -135 -243 -4 -9 61 -78 195 -207 l200 -193 0 921 0 921 -340 0 c-187 0 -340 -2 -340 -4z"/>
 <path d="M430 378 l-282 -373 843 -3 c463 -1 844 0 846 2 2 2 -121 171 -274 374 l-278 371 -286 0 -287 1 -282 -372z"/>
 <path d="M0 337 l0 -337 70 0 c52 0 70 3 70 13 0 21 -130 650 -135 656 -3 2 -5 -147 -5 -332z"/>
 <path d="M1970 664 c0 -3 -27 -149 -60 -324 -33 -175 -60 -323 -60 -329 0 -7 25 -11 65 -11 l65 0 0 335 c0 184 -2 335 -5 335 -3 0 -5 -3 -5 -6z"/>
 </g>

</svg>