<!DOCTYPE svg PUBLIC "-//W3C//DTD SVG 20010904//EN" "http://www.w3.org/TR/2001/REC-SVG-20010904/DTD/svg10.dtd">
<svg version="1.0" xmlns="http://www.w3.org/2000/svg" width="1600px" height="602px" viewBox="0 0 16000 6020" preserveAspectRatio="xMidYMid meet">
<g id="layer101" fill="#3d3d3d" stroke="none">
 <path d="M0 3010 l0 -3010 1398 0 c1204 0 1410 2 1492 16 52 8 122 19 155 23 33 5 80 14 105 20 141 38 198 55 228 67 18 8 37 14 42 14 18 0 220 95 295 138 110 64 232 158 331 257 100 98 241 273 250 311 6 22 -4 63 -31 134 -7 19 -30 89 -50 155 -21 66 -45 143 -55 170 -9 28 -40 122 -68 210 -81 251 -109 338 -120 365 -5 14 -18 52 -27 85 -10 33 -26 83 -35 110 -16 46 -111 339 -198 610 -19 61 -43 133 -53 160 -9 28 -43 131 -74 230 -31 99 -63 195 -71 213 -8 18 -14 39 -14 46 0 7 -8 35 -19 62 -10 27 -26 76 -36 109 -10 33 -24 78 -33 100 -8 22 -18 54 -22 70 -5 17 -14 46 -20 65 -7 19 -19 54 -27 77 -16 47 -12 46 -178 82 -237 51 -393 60 -1092 61 l-533 0 0 1030 0 1030 -770 0 -770 0 0 -3010z m2420 -258 c138 -28 191 -45 276 -88 117 -59 203 -150 266 -284 50 -104 68 -169 79 -285 25 -262 -25 -469 -153 -640 -80 -107 -149 -153 -327 -219 -24 -9 -94 -26 -155 -36 -97 -17 -160 -20 -488 -20 l-378 0 0 801 0 800 388 -3 c347 -4 398 -7 492 -26z"/>
 <path d="M4906 5995 c-9 -13 -16 -26 -16 -29 0 -4 -88 -162 -110 -196 -25 -41 -137 -229 -153 -260 -11 -19 -34 -60 -53 -91 -19 -31 -34 -62 -34 -68 0 -6 -4 -11 -8 -11 -5 0 -23 -28 -41 -62 -19 -35 -39 -70 -45 -78 -12 -17 -25 -38 -69 -120 -17 -30 -42 -73 -56 -95 -28 -44 -33 -53 -81 -140 -18 -33 -38 -67 -44 -75 -6 -8 -17 -26 -25 -39 -52 -92 -61 -112 -61 -127 0 -16 52 -184 85 -274 7 -19 38 -116 70 -215 31 -99 65 -202 75 -230 9 -27 34 -102 54 -165 20 -63 47 -149 60 -190 13 -41 28 -86 34 -100 5 -14 20 -59 32 -100 13 -41 28 -91 35 -110 7 -19 46 -136 85 -260 105 -324 127 -392 138 -420 5 -14 17 -52 27 -85 9 -33 25 -82 35 -110 10 -27 31 -92 46 -142 16 -51 31 -93 35 -93 3 0 21 28 39 63 58 113 591 1167 723 1431 l130 259 22 -59 c12 -33 39 -113 60 -179 20 -66 43 -136 50 -155 7 -19 25 -75 41 -125 15 -49 33 -103 40 -120 7 -16 20 -57 29 -90 10 -33 25 -82 35 -110 10 -27 27 -81 39 -120 12 -38 28 -86 35 -105 8 -19 31 -89 51 -155 20 -66 45 -142 55 -170 10 -27 41 -124 70 -215 29 -91 60 -187 70 -215 17 -50 110 -335 154 -475 13 -41 28 -86 34 -100 5 -14 26 -77 46 -140 54 -173 83 -262 94 -290 5 -14 26 -79 47 -145 20 -66 46 -142 56 -169 11 -27 19 -55 19 -62 0 -7 6 -28 14 -46 8 -18 39 -114 71 -213 31 -99 65 -202 75 -230 10 -27 26 -78 36 -112 l19 -63 629 3 629 2 28 90 c26 84 51 167 84 275 41 138 97 319 106 345 6 17 13 39 16 50 7 30 81 278 129 430 6 22 22 74 34 115 13 41 31 100 40 130 10 30 26 82 35 115 10 33 26 85 35 115 10 30 26 82 35 115 10 33 25 85 35 115 10 30 25 82 35 115 9 33 25 85 35 115 18 58 53 172 77 255 8 28 19 64 25 80 5 17 14 46 20 65 6 19 26 87 45 150 19 63 41 135 48 160 7 25 23 74 34 110 11 36 36 119 56 185 19 66 44 147 54 180 10 33 27 87 37 120 9 33 25 85 34 115 10 30 25 82 35 115 10 33 28 90 40 126 l22 67 15 -32 c13 -26 40 -89 103 -241 7 -16 21 -50 32 -75 11 -25 39 -90 62 -145 23 -55 48 -113 56 -130 7 -16 17 -41 23 -55 5 -14 21 -50 34 -80 14 -30 42 -95 63 -145 21 -49 46 -110 57 -135 11 -25 25 -58 32 -75 7 -16 22 -50 33 -75 18 -41 84 -196 103 -245 4 -11 19 -45 32 -75 25 -54 129 -297 153 -355 7 -16 21 -50 32 -75 11 -25 37 -85 58 -135 55 -131 65 -156 85 -200 21 -49 129 -303 140 -330 4 -11 19 -45 32 -75 14 -30 42 -95 62 -145 21 -49 47 -110 58 -135 32 -72 43 -99 88 -205 23 -55 47 -113 55 -130 7 -16 17 -41 23 -55 5 -14 21 -50 34 -80 14 -30 42 -95 63 -145 35 -83 57 -134 90 -210 8 -16 16 -40 20 -52 l6 -23 820 0 819 0 -19 43 c-18 39 -34 79 -77 187 -10 25 -25 63 -34 85 -9 22 -24 60 -34 85 -10 25 -27 68 -38 95 -12 28 -24 59 -29 70 -4 11 -20 49 -34 85 -29 69 -50 121 -85 210 -12 30 -28 69 -35 85 -7 17 -19 48 -28 70 -8 22 -27 69 -42 105 -14 36 -30 74 -34 85 -20 49 -50 124 -71 175 -12 30 -26 64 -31 75 -4 11 -20 49 -34 85 -15 36 -34 83 -42 105 -8 22 -23 60 -33 85 -11 25 -35 86 -55 135 -66 163 -86 210 -96 227 -5 10 -9 23 -9 28 0 6 -8 30 -19 53 -10 23 -35 85 -55 137 -21 52 -42 104 -46 115 -24 57 -75 181 -120 295 -12 30 -28 69 -35 85 -7 17 -20 50 -29 75 -10 25 -26 63 -37 85 -10 22 -19 44 -19 48 0 5 -6 23 -14 40 -21 51 -66 159 -107 262 -4 11 -20 49 -34 85 -15 36 -34 83 -42 105 -8 22 -24 63 -35 90 -12 28 -24 59 -29 70 -37 93 -63 156 -80 190 -10 22 -19 44 -19 48 0 5 -6 23 -14 40 -27 64 -55 134 -84 207 -40 102 -109 274 -134 335 -11 28 -24 59 -29 70 -4 11 -20 49 -34 85 -15 36 -34 83 -42 105 -9 22 -23 58 -33 80 -10 22 -25 60 -35 85 -22 59 -47 120 -80 200 -14 36 -30 74 -34 85 -5 11 -17 43 -29 70 -11 28 -28 70 -38 95 -10 25 -25 63 -34 85 -9 22 -24 60 -34 85 -10 25 -27 68 -38 95 -11 28 -29 73 -40 100 -11 28 -26 64 -33 80 -7 17 -21 53 -33 80 -11 28 -28 69 -37 93 l-18 42 -802 0 -802 0 -16 -42 c-8 -24 -25 -77 -37 -118 -12 -41 -31 -100 -40 -130 -23 -69 -85 -267 -107 -340 -8 -30 -24 -77 -33 -105 -9 -27 -27 -84 -40 -125 -13 -41 -29 -93 -36 -115 -6 -22 -22 -74 -34 -115 -13 -41 -28 -91 -35 -110 -23 -64 -85 -265 -85 -275 0 -5 -9 -32 -19 -60 -18 -48 -40 -115 -76 -240 -10 -33 -26 -82 -35 -110 -10 -27 -26 -77 -35 -110 -9 -33 -25 -85 -35 -115 -10 -30 -35 -109 -55 -175 -21 -66 -45 -145 -55 -175 -22 -66 -84 -264 -107 -340 -8 -30 -24 -77 -33 -105 -9 -27 -25 -77 -35 -110 -9 -33 -25 -85 -35 -115 -36 -107 -88 -275 -95 -305 l-7 -30 -13 35 c-7 19 -29 89 -50 155 -20 66 -41 131 -47 145 -6 14 -14 39 -18 55 -4 17 -16 53 -26 80 -40 114 -54 158 -104 315 -29 91 -58 181 -66 200 -7 19 -23 67 -35 105 -32 105 -76 237 -87 265 -6 14 -20 57 -31 95 -12 39 -28 86 -35 105 -8 19 -31 89 -51 155 -21 66 -51 158 -67 205 -16 47 -33 99 -37 115 -5 17 -17 53 -26 80 -10 28 -23 66 -30 85 -7 19 -29 89 -50 155 -34 111 -51 162 -84 255 -7 19 -16 49 -21 65 -4 17 -14 48 -22 70 -9 22 -32 94 -53 160 -20 66 -43 136 -51 155 -7 19 -23 67 -35 105 -11 39 -29 93 -38 120 -10 28 -27 79 -38 115 l-21 65 -805 3 -805 2 -16 -25z"/>
 <path d="M14309 5993 c-6 -16 -15 -39 -20 -53 -4 -14 -20 -56 -34 -95 -15 -38 -33 -88 -40 -110 -8 -22 -25 -71 -40 -110 -14 -38 -36 -101 -50 -140 -13 -38 -36 -101 -50 -140 -14 -38 -32 -88 -40 -110 -16 -47 -44 -124 -78 -215 l-24 -65 -1081 -3 c-674 -1 -1082 -6 -1082 -12 0 -9 9 -34 36 -97 8 -17 14 -37 14 -45 0 -8 4 -18 9 -23 5 -6 23 -48 41 -95 17 -47 38 -98 45 -115 7 -16 20 -50 30 -75 9 -25 26 -66 36 -92 10 -27 28 -69 38 -95 10 -27 26 -68 36 -93 9 -25 25 -63 36 -85 10 -22 19 -45 19 -51 0 -12 43 -116 60 -146 6 -10 10 -23 10 -29 0 -6 6 -25 14 -42 7 -18 18 -44 24 -59 l12 -28 666 0 c630 0 666 -1 659 -17 -4 -10 -11 -29 -15 -43 -5 -14 -22 -63 -40 -110 -17 -47 -42 -116 -56 -155 -13 -38 -35 -101 -50 -140 -14 -38 -29 -84 -33 -100 -4 -17 -14 -42 -21 -55 -7 -13 -17 -38 -21 -55 -10 -37 -36 -113 -49 -140 -6 -11 -16 -40 -24 -65 -8 -25 -31 -90 -51 -145 -20 -55 -43 -118 -50 -140 -8 -22 -25 -71 -40 -110 -14 -38 -36 -101 -49 -140 -22 -63 -60 -169 -102 -280 -9 -22 -18 -48 -21 -57 -5 -16 44 -153 87 -243 11 -22 22 -52 26 -68 3 -15 10 -30 15 -33 5 -3 9 -13 9 -22 0 -10 9 -35 20 -57 11 -22 20 -43 20 -48 0 -5 6 -23 14 -40 30 -70 56 -137 91 -227 20 -52 45 -115 55 -140 10 -25 26 -65 36 -90 10 -25 26 -64 36 -87 10 -23 18 -48 18 -56 0 -7 7 -22 15 -33 8 -10 15 -25 15 -32 0 -7 8 -32 18 -55 17 -39 27 -63 72 -177 10 -25 27 -67 38 -95 11 -27 28 -70 37 -95 15 -40 43 -110 66 -165 4 -11 28 -72 53 -135 25 -63 51 -116 58 -118 8 -2 18 12 25 35 6 21 21 63 32 93 27 68 39 99 84 220 19 52 45 120 57 150 12 30 24 66 27 80 3 14 10 30 14 36 5 6 17 35 28 65 28 84 80 222 91 244 6 11 14 34 19 50 5 17 19 55 31 85 12 30 37 96 55 145 18 50 43 115 55 145 21 55 68 179 120 320 15 41 35 92 44 112 9 21 16 42 16 47 0 6 7 25 14 43 8 18 27 65 41 103 14 39 30 79 36 90 5 11 13 34 18 50 5 17 19 55 31 85 12 30 36 96 55 145 18 50 43 115 55 145 12 30 24 64 27 75 3 11 11 34 18 50 8 17 20 48 28 70 25 67 88 238 103 275 43 112 59 154 89 235 18 50 43 115 55 145 12 30 36 96 55 145 18 50 43 115 55 145 12 30 24 66 27 80 3 14 9 30 13 35 4 6 15 30 23 55 9 25 26 70 37 100 12 30 30 78 40 105 10 28 28 75 40 105 12 30 26 69 31 85 5 17 13 39 19 50 5 11 23 56 39 100 16 44 39 105 51 135 12 30 24 64 27 75 3 11 14 39 24 62 10 24 19 46 19 51 0 4 16 46 35 92 19 46 35 91 35 100 0 9 4 20 9 26 5 5 16 29 25 54 8 25 25 70 36 100 12 30 26 69 31 85 6 17 15 38 20 49 6 10 17 37 24 60 7 22 23 66 35 96 12 30 36 96 55 145 18 50 43 115 55 145 12 30 24 64 27 75 3 11 14 39 24 62 10 24 19 47 19 53 0 5 6 24 14 42 36 83 56 138 56 152 0 14 -85 16 -840 16 l-840 0 -11 -27z"/>
 </g>
<g id="layer102" fill="#5a0fc8" stroke="none">
 <path d="M4859 5908 c-35 -62 -68 -120 -74 -129 -5 -9 -36 -61 -68 -115 -32 -55 -62 -106 -67 -114 -31 -48 -110 -193 -110 -200 0 -5 -4 -10 -8 -12 -5 -1 -26 -34 -48 -71 -21 -38 -48 -83 -58 -100 -10 -18 -32 -57 -49 -87 -17 -30 -48 -84 -70 -120 -22 -36 -53 -90 -70 -120 -16 -30 -35 -62 -41 -70 -6 -8 -17 -26 -25 -39 -52 -92 -61 -112 -61 -127 0 -16 52 -184 85 -274 7 -19 38 -116 70 -215 31 -99 65 -202 75 -230 9 -27 34 -102 54 -165 20 -63 47 -149 60 -190 13 -41 28 -86 34 -100 5 -14 26 -77 46 -140 20 -63 67 -209 104 -325 38 -115 81 -250 97 -300 16 -49 34 -103 41 -120 6 -16 19 -57 29 -90 9 -33 25 -82 35 -110 10 -27 31 -92 46 -142 16 -51 31 -93 35 -93 7 0 62 106 367 710 109 217 272 541 362 719 l163 323 22 -58 c13 -33 39 -113 60 -179 20 -66 43 -136 50 -155 7 -19 25 -73 39 -120 15 -47 33 -101 40 -120 8 -19 37 -109 65 -200 29 -91 60 -187 70 -215 10 -27 35 -104 56 -170 20 -66 45 -142 56 -169 10 -27 19 -55 19 -62 0 -7 6 -28 14 -46 8 -18 31 -87 51 -153 21 -66 45 -142 55 -170 10 -27 50 -151 89 -275 40 -124 81 -247 90 -275 10 -27 35 -102 55 -165 58 -185 83 -263 94 -290 5 -14 26 -79 47 -145 20 -66 46 -142 56 -169 11 -27 19 -55 19 -62 0 -7 6 -28 14 -46 7 -18 40 -114 71 -213 32 -99 66 -202 75 -230 10 -27 26 -78 37 -112 l18 -63 629 3 629 2 13 40 c7 22 29 94 49 160 19 66 42 140 50 165 7 25 32 106 54 180 23 74 48 155 55 180 8 25 30 99 50 165 20 66 46 152 58 190 12 39 27 88 33 110 7 22 23 74 35 115 13 41 31 100 40 130 10 30 26 82 35 115 10 33 26 85 35 115 10 30 26 82 35 115 10 33 25 85 35 115 10 30 25 82 35 115 10 33 26 87 36 120 11 33 35 114 54 180 20 66 40 134 46 150 6 17 26 83 45 147 19 64 38 127 43 140 4 13 16 50 25 83 10 33 26 87 36 120 11 33 35 114 55 180 19 66 44 147 54 180 10 33 27 87 37 120 9 33 25 85 34 115 10 30 25 82 35 115 10 33 28 91 40 129 l23 68 17 -38 c38 -88 65 -152 100 -239 7 -16 21 -50 32 -75 19 -43 121 -281 148 -345 7 -16 21 -50 32 -75 11 -25 37 -85 58 -135 21 -49 46 -110 57 -135 11 -25 25 -58 32 -75 7 -16 22 -50 33 -75 17 -38 54 -125 108 -255 7 -16 21 -50 32 -75 11 -25 53 -121 92 -215 40 -93 82 -190 93 -215 21 -49 33 -75 68 -160 13 -30 31 -73 41 -95 9 -22 24 -56 32 -75 8 -19 40 -96 72 -170 31 -74 61 -144 65 -155 4 -11 20 -47 34 -80 41 -92 51 -116 76 -175 12 -30 31 -75 42 -100 28 -64 39 -89 103 -240 75 -175 93 -218 110 -255 7 -16 41 -95 75 -175 33 -80 65 -154 70 -165 5 -11 12 -30 15 -42 l6 -23 820 0 820 0 -15 29 c-9 16 -22 46 -30 67 -22 62 -110 283 -158 399 -34 83 -36 88 -54 130 -17 41 -30 75 -84 210 -17 44 -37 94 -44 110 -7 17 -20 48 -29 70 -8 22 -27 69 -42 105 -14 36 -30 74 -34 85 -20 49 -50 124 -71 175 -12 30 -26 64 -31 75 -4 11 -20 49 -34 85 -15 36 -34 83 -42 105 -8 22 -23 58 -33 80 -10 22 -23 56 -30 75 -7 19 -23 61 -36 93 -13 31 -35 85 -50 120 -14 34 -29 70 -35 79 -5 10 -9 23 -9 29 0 7 -9 30 -19 53 -11 23 -36 84 -56 136 -20 52 -41 104 -45 115 -15 34 -61 148 -82 200 -11 28 -26 64 -33 80 -38 91 -56 137 -80 200 -15 39 -31 74 -36 80 -5 5 -9 15 -9 23 0 8 -6 28 -14 45 -7 18 -23 57 -36 87 -12 30 -31 73 -41 96 -11 23 -19 46 -19 53 0 6 -4 19 -9 29 -15 27 -152 363 -202 496 -10 27 -23 54 -29 60 -5 5 -10 16 -10 24 0 8 -6 28 -14 45 -27 64 -55 134 -84 207 -63 160 -126 316 -167 415 -14 31 -38 92 -75 185 -12 30 -28 69 -35 85 -7 17 -20 50 -30 75 -25 66 -48 124 -90 225 -21 50 -45 110 -55 135 -10 25 -26 65 -36 90 -10 25 -25 63 -34 85 -9 22 -24 60 -34 85 -10 25 -27 68 -38 95 -11 28 -28 68 -38 90 -9 22 -25 60 -35 85 -24 64 -50 128 -70 178 l-18 42 -802 0 -802 0 -16 -42 c-8 -24 -25 -77 -37 -118 -12 -41 -31 -100 -40 -130 -23 -69 -85 -267 -107 -340 -8 -30 -24 -77 -33 -105 -9 -27 -27 -84 -40 -125 -13 -41 -29 -93 -36 -115 -6 -22 -22 -74 -34 -115 -13 -41 -28 -91 -35 -110 -25 -68 -85 -265 -85 -276 0 -6 -8 -33 -19 -60 -19 -50 -44 -130 -76 -239 -10 -33 -23 -76 -30 -95 -7 -19 -23 -69 -35 -110 -27 -91 -85 -275 -110 -350 -10 -30 -34 -109 -54 -175 -21 -66 -45 -145 -55 -175 -10 -30 -26 -82 -36 -115 -10 -33 -26 -82 -35 -110 -9 -27 -25 -77 -35 -110 -9 -33 -25 -85 -35 -115 -10 -30 -35 -109 -55 -175 -53 -172 -49 -165 -65 -114 -31 101 -154 478 -170 524 -10 28 -42 124 -70 215 -29 91 -58 181 -66 200 -7 19 -23 67 -35 105 -11 39 -29 93 -40 120 -10 28 -19 56 -19 63 0 7 -9 34 -19 60 -10 26 -28 79 -40 117 -12 39 -28 86 -35 105 -8 19 -31 89 -51 155 -21 66 -51 158 -67 205 -16 47 -33 99 -37 115 -8 27 -23 70 -56 165 -7 19 -29 89 -50 155 -35 111 -52 162 -84 255 -7 19 -16 49 -21 65 -4 17 -14 48 -23 70 -8 22 -47 141 -87 265 -39 124 -80 248 -89 275 -10 28 -27 79 -38 115 l-21 65 -804 3 -805 2 -64 -112z"/>
 </g>

</svg>